<svg id="Layer" style="fill: #fff;"  viewBox="0 0 64 64"  xmlns="http://www.w3.org/2000/svg"><path d="m20.586 55.414c.375.376.884.586 1.414.586h.005c.532-.001 1.042-.215 1.417-.593l8.578-8.665 8.578 8.665c.375.378.884.591 1.417.593h.005c.53 0 1.039-.21 1.414-.586l6-6c.769-.768.783-2.009.033-2.795l-8.504-8.908 2.379-2.404c.004-.004.006-.008.009-.012 3.012-3.021 4.671-7.031 4.671-11.295 0-4.273-1.665-8.291-4.688-11.314s-7.041-4.688-11.314-4.688-8.291 1.665-11.314 4.688-4.688 7.041-4.688 11.314c0 4.269 1.662 8.283 4.68 11.305.001.001.001.001.002.002l.002.002c.002.002.003.003.005.005.001.001.002.001.002.002l2.374 2.398-8.508 8.905c-.75.786-.736 2.027.032 2.795zm2.928-39.9c2.268-2.268 5.281-3.517 8.486-3.517s6.218 1.249 8.486 3.517 3.517 5.281 3.517 8.486-1.249 6.218-3.517 8.486c-.001.001-.001.002-.002.003-.002.002-.004.003-.006.005l-2.299 2.323-3.41-3.572 2.217-2.323c.005-.005.008-.012.013-.017 2.671-2.734 2.659-7.14-.049-9.862-2.729-2.715-7.17-2.715-9.909.007-2.716 2.73-2.716 7.171 0 9.901.012.012.026.02.038.031l3.477 3.642c.022.023.039.05.062.073.009.008.019.014.028.022l6.051 6.339c.016.017.028.037.045.054.01.009.021.016.031.025l8.43 8.831-3.197 3.197-18.484-18.673c-.003-.003-.006-.004-.008-.007-2.267-2.268-3.516-5.281-3.516-8.485 0-3.205 1.249-6.218 3.516-8.486zm6.397 10.641c-.013-.013-.028-.022-.041-.035-1.159-1.175-1.157-3.078.001-4.241 1.174-1.169 3.084-1.168 4.251-.007 1.168 1.174 1.168 3.084 0 4.259-.005.005-.008.011-.014.017-.005.005-.011.008-.015.013l-2.089 2.189zm-4.034 14.402 3.309 3.342-7.193 7.265-3.197-3.196z"/></svg>